<svg xmlns="http://www.w3.org/2000/svg" xmlns:xlink="http://www.w3.org/1999/xlink" enable-background="new 0 0 100 100" viewBox="0 0 100 100"><defs><linearGradient id="a"><stop offset="0" stop-color="#000092"/><stop offset="1" stop-color="#ff00f3"/></linearGradient><linearGradient id="c" x1="1.5" x2="84" y1="53.182" y2="53.182" gradientUnits="userSpaceOnUse" xlink:href="#a"/></defs><symbol id="b" viewBox="0 -24 360 24"><rect width="360" height="24" y="-24" fill="#010101" fill-opacity="0"/><rect width="40" height="16" x="312" y="-21" fill="none" opacity=".9"/><path fill="#fff" d="M266.006-18.992l8.802,10.907C274.467-7.828,271.081-5,266-5s-8.467-2.828-8.808-3.084l8.802-10.907L266-19      l0,0l0,0L266.006-18.992z" opacity=".9"/><rect width="16" height="16" x="258" y="-20" fill="none"/><polygon fill="#fff" points="277 -18.997 291 -18.997 291 -4.997" opacity=".9"/><rect width="16" height="16" x="276" y="-20" fill="none"/><g><rect width="16" height="16" x="296" y="-20" fill="none"/><path fill="#fff" d="M306-6v1h-3v-1h-3v-13h9v13H306z" opacity=".9"/></g></symbol><path fill="url(#c)" d="M 50 10.181641 C 49.724 10.181641 49.5 10.405641 49.5 10.681641 L 49.5 16.210938 L 47.511719 16.210938 L 47.5 14.707031 C 47.498 14.433031 47.274 14.210936 47 14.210938 L 46.996094 14.210938 C 46.720094 14.212938 46.498 14.438844 46.5 14.714844 L 46.515625 16.714844 L 46.515625 19.181641 L 46 19.181641 C 45.724 19.181641 45.5 19.405641 45.5 19.681641 C 45.5 19.957641 45.724 20.181641 46 20.181641 L 46.318359 20.181641 L 44.423828 26.181641 L 43.5 26.181641 L 43.5 24.681641 C 43.5 24.405641 43.276 24.181641 43 24.181641 C 42.724 24.181641 42.5 24.405641 42.5 24.681641 L 42.5 26.681641 L 42.5 28.681641 L 42.5 32.181641 C 42.5 32.201641 42.509699 32.217328 42.511719 32.236328 L 40.523438 38.53125 C 40.518437 38.54825 40.523524 38.565984 40.519531 38.583984 C 40.512531 38.616984 40.5 38.646641 40.5 38.681641 L 40.5 40.681641 L 40.5 41.681641 L 40.5 67.181641 L 18.5 67.181641 L 18.5 66.210938 L 19.027344 66.210938 C 19.303344 66.210938 19.527344 65.986936 19.527344 65.710938 C 19.527344 65.434938 19.303344 65.210938 19.027344 65.210938 L 18.375 65.210938 L 15.707031 57.210938 L 16.015625 57.210938 C 16.291625 57.210938 16.515625 56.986938 16.515625 56.710938 C 16.515625 56.434936 16.291625 56.210938 16.015625 56.210938 L 15.013672 56.210938 L 14.513672 56.210938 L 14.513672 53.710938 L 14.513672 51.710938 C 14.513672 51.434936 14.289672 51.210938 14.013672 51.210938 C 13.737672 51.210938 13.513672 51.434936 13.513672 51.710938 L 13.513672 53.210938 L 8.5136719 53.210938 L 8.5136719 51.710938 C 8.5136719 51.434936 8.2896719 51.210938 8.0136719 51.210938 C 7.7376719 51.210938 7.5136719 51.434936 7.5136719 51.710938 L 7.5136719 53.710938 L 7.5136719 56.210938 L 7.0039062 56.210938 L 6.0214844 56.210938 C 5.7454844 56.210938 5.5214844 56.434936 5.5214844 56.710938 C 5.5214844 56.986938 5.7454844 57.210936 6.0214844 57.210938 L 6.3125 57.210938 L 3.640625 65.210938 L 3.0097656 65.210938 C 2.7337656 65.210938 2.5097656 65.434937 2.5097656 65.710938 C 2.5097656 65.986936 2.7337656 66.210938 3.0097656 66.210938 L 3.5 66.210938 L 3.5 68.681641 L 3.5 69.681641 L 3.5 95.181641 L 2 95.181641 C 1.724 95.181641 1.5 95.405641 1.5 95.681641 C 1.5 95.957641 1.724 96.181641 2 96.181641 L 4 96.181641 L 18 96.181641 L 41 96.181641 L 59 96.181641 L 82 96.181641 L 96 96.181641 L 98 96.181641 C 98.275999 96.181641 98.5 95.957641 98.5 95.681641 C 98.5 95.405641 98.277 95.181641 98 95.181641 L 96.5 95.181641 L 96.5 69.681641 L 96.5 68.681641 L 96.5 66.210938 L 97 66.210938 C 97.275999 66.210938 97.5 65.986936 97.5 65.710938 C 97.5 65.434938 97.275999 65.210938 97 65.210938 L 96.369141 65.210938 L 93.701172 57.210938 L 94.009766 57.210938 C 94.285766 57.210938 94.509766 56.986938 94.509766 56.710938 C 94.509766 56.434936 94.285766 56.210938 94.009766 56.210938 L 93.007812 56.210938 L 92.507812 56.210938 L 92.507812 53.710938 L 92.507812 51.710938 C 92.507812 51.434936 92.283812 51.210938 92.007812 51.210938 C 91.731814 51.210938 91.507812 51.434936 91.507812 51.710938 L 91.507812 53.210938 L 86.507812 53.210938 L 86.507812 51.710938 C 86.507812 51.434936 86.283813 51.210938 86.007812 51.210938 C 85.731814 51.210938 85.507812 51.434936 85.507812 51.710938 L 85.507812 53.710938 L 85.507812 56.210938 L 84.998047 56.210938 L 84.013672 56.210938 C 83.737673 56.210938 83.513672 56.434936 83.513672 56.710938 C 83.513672 56.986938 83.737673 57.210936 84.013672 57.210938 L 84.304688 57.210938 L 81.642578 65.181641 L 81.001953 65.181641 C 80.725953 65.181641 80.501953 65.405641 80.501953 65.681641 C 80.501953 65.957641 80.725953 66.181641 81.001953 66.181641 L 81.501953 66.181641 L 81.501953 67.181641 L 59.501953 67.181641 L 59.501953 41.681641 L 59.501953 40.681641 L 59.501953 38.681641 C 59.501953 38.646641 59.489422 38.616984 59.482422 38.583984 C 59.479422 38.565984 59.484516 38.54825 59.478516 38.53125 L 57.490234 32.236328 C 57.492234 32.217328 57.5 32.200641 57.5 32.181641 L 57.5 28.681641 L 57.5 26.681641 L 57.5 24.681641 C 57.5 24.405641 57.276 24.181641 57 24.181641 C 56.724 24.181641 56.5 24.405641 56.5 24.681641 L 56.5 26.181641 L 55.578125 26.181641 L 53.683594 20.181641 L 54 20.181641 C 54.276 20.181641 54.5 19.957641 54.5 19.681641 C 54.5 19.405641 54.276 19.181641 54 19.181641 L 53.515625 19.181641 L 53.515625 16.710938 L 53.515625 16.708984 L 53.515625 16.707031 L 53.5 14.707031 C 53.498 14.433031 53.274 14.210937 53 14.210938 L 52.996094 14.210938 C 52.720094 14.212938 52.498 14.438844 52.5 14.714844 L 52.511719 16.210938 L 50.5 16.210938 L 50.5 10.681641 C 50.5 10.405641 50.276 10.181641 50 10.181641 z M 47.515625 17.210938 L 48.5 17.210938 L 48.5 19.181641 L 47.515625 19.181641 L 47.515625 17.210938 z M 49.5 17.210938 L 50.5 17.210938 L 50.5 19.181641 L 49.5 19.181641 L 49.5 17.210938 z M 51.5 17.210938 L 52.515625 17.210938 L 52.515625 19.181641 L 51.5 19.181641 L 51.5 17.210938 z M 47.357422 20.210938 L 52.644531 20.210938 L 58.318359 38.181641 L 55.501953 38.181641 L 55.501953 35.681641 C 55.501953 35.405641 55.277953 35.181641 55.001953 35.181641 L 53.267578 35.181641 L 50.472656 27.511719 C 50.401656 27.315719 50.213859 27.183641 50.005859 27.181641 L 50.001953 27.181641 C 49.794953 27.181641 49.609156 27.308953 49.535156 27.501953 L 46.574219 35.181641 L 45.001953 35.181641 C 44.725953 35.181641 44.501953 35.405641 44.501953 35.681641 L 44.501953 38.181641 L 41.685547 38.181641 L 47.357422 20.210938 z M 43.5 27.181641 L 44.109375 27.181641 L 43.5 29.105469 L 43.5 28.681641 L 43.5 27.181641 z M 55.892578 27.181641 L 56.5 27.181641 L 56.5 28.681641 L 56.5 29.105469 L 55.892578 27.181641 z M 49.988281 29.103516 L 52.447266 35.851562 C 52.448266 35.854563 52.451125 35.854422 52.453125 35.857422 C 52.486125 35.943422 52.543235 36.012359 52.615234 36.068359 C 52.631234 36.080359 52.645109 36.091563 52.662109 36.101562 C 52.738109 36.147562 52.821016 36.179688 52.916016 36.179688 L 54.5 36.179688 L 54.5 38.675781 L 54.5 38.679688 C 54.5 38.955688 54.724001 39.179688 55 39.179688 L 56 39.179688 L 58 39.179688 L 58.5 39.179688 L 58.5 39.271484 C 58.343001 39.215484 58.176001 39.179687 58 39.179688 C 57.615001 39.179688 57.266 39.330312 57 39.570312 C 56.734001 39.330312 56.385 39.179688 56 39.179688 C 55.173001 39.179688 54.5 39.852688 54.5 40.679688 L 54.5 41.679688 C 54.5 41.955688 54.724001 42.179688 55 42.179688 C 55.276 42.179688 55.5 41.955686 55.5 41.679688 L 55.5 40.679688 C 55.5 40.404688 55.725001 40.179688 56 40.179688 C 56.275 40.179688 56.5 40.404687 56.5 40.679688 L 56.5 41.679688 C 56.5 41.955688 56.724 42.179688 57 42.179688 C 57.276001 42.179688 57.5 41.955686 57.5 41.679688 L 57.5 40.679688 C 57.5 40.404688 57.725001 40.179688 58 40.179688 C 58.275 40.179688 58.5 40.404687 58.5 40.679688 L 58.5 41.679688 L 58.5 47.179688 L 53 47.179688 L 47 47.179688 L 41.5 47.179688 L 41.5 41.679688 L 41.5 40.679688 C 41.5 40.404688 41.725 40.179688 42 40.179688 C 42.275001 40.179688 42.5 40.404687 42.5 40.679688 L 42.5 41.679688 C 42.5 41.955688 42.724001 42.179688 43 42.179688 C 43.276 42.179688 43.5 41.955686 43.5 41.679688 L 43.5 40.679688 C 43.5 40.404688 43.725 40.179688 44 40.179688 C 44.275001 40.179688 44.5 40.404687 44.5 40.679688 L 44.5 41.679688 C 44.5 41.955688 44.724001 42.179688 45 42.179688 C 45.276 42.179688 45.5 41.955686 45.5 41.679688 L 45.5 40.679688 C 45.5 39.859355 44.837367 39.192371 44.019531 39.181641 L 45 39.181641 C 45.276 39.181641 45.5 38.957641 45.5 38.681641 L 45.5 36.181641 L 46.917969 36.181641 C 46.920969 36.181641 46.922781 36.179687 46.925781 36.179688 C 46.950781 36.178688 46.974047 36.169063 46.998047 36.164062 C 47.172047 36.135062 47.316858 36.025234 47.380859 35.865234 C 47.381859 35.863234 47.381765 35.861375 47.382812 35.859375 L 49.988281 29.103516 z M 41.5 39.181641 L 41.990234 39.181641 C 41.818028 39.183041 41.653925 39.216584 41.5 39.271484 L 41.5 39.181641 z M 42.019531 39.181641 L 43.980469 39.181641 C 43.603397 39.186741 43.261381 39.33448 43 39.570312 C 42.738619 39.33448 42.396603 39.186742 42.019531 39.181641 z M 50 39.181641 C 48.069999 39.181641 46.5 40.751641 46.5 42.681641 C 46.5 44.611641 48.071 46.181641 50 46.181641 C 51.93 46.181641 53.5 44.611641 53.5 42.681641 C 53.5 40.751641 51.93 39.181641 50 39.181641 z M 50 40.181641 C 51.379 40.181641 52.5 41.302641 52.5 42.681641 C 52.5 44.060641 51.379 45.181641 50 45.181641 C 48.621 45.181641 47.5 44.060641 47.5 42.681641 C 47.5 41.302641 48.621 40.181641 50 40.181641 z M 50 41.181641 C 49.724 41.181641 49.5 41.405641 49.5 41.681641 L 49.5 42.681641 C 49.501 42.957641 49.724 43.181641 50 43.181641 C 50.009 43.181641 50.018344 43.177734 50.027344 43.177734 C 50.036344 43.177734 50.043734 43.181641 50.052734 43.181641 L 51.5 43.181641 C 51.775999 43.181641 52 42.957641 52 42.681641 C 52 42.405641 51.775999 42.181641 51.5 42.181641 L 50.5 42.181641 L 50.5 41.681641 C 50.5 41.405641 50.275999 41.181641 50 41.181641 z M 41.5 48.181641 L 46.5 48.181641 L 46.5 49.681641 C 46.5 49.870641 46.608344 50.043906 46.777344 50.128906 L 48.5 50.990234 L 48.5 52.681641 C 48.5 52.957641 48.724 53.181641 49 53.181641 L 49.5 53.181641 L 49.5 55.181641 C 49.224 55.181641 49 55.405641 49 55.681641 C 49 55.957641 49.224 56.181641 49.5 56.181641 L 50.5 56.181641 C 50.776 56.181641 51 55.957641 51 55.681641 C 51 55.405641 50.776 55.181641 50.5 55.181641 L 50.5 53.181641 L 51 53.181641 C 51.276 53.181641 51.5 52.957641 51.5 52.681641 L 51.5 50.990234 L 53.224609 50.128906 C 53.393609 50.043906 53.5 49.870641 53.5 49.681641 L 53.5 48.181641 L 58.5 48.181641 L 58.5 60.181641 L 54.5 60.181641 L 54.5 58.181641 C 54.5 57.078641 53.602999 56.181641 52.5 56.181641 C 51.397 56.181641 50.5 57.078641 50.5 58.181641 L 50.5 60.181641 L 49.5 60.181641 L 49.5 58.181641 C 49.5 57.078641 48.602999 56.181641 47.5 56.181641 C 46.397 56.181641 45.5 57.078641 45.5 58.181641 L 45.5 60.181641 L 41.5 60.181641 L 41.5 48.181641 z M 47.5 48.183594 L 52.5 48.183594 L 52.5 49.373047 L 50.777344 50.234375 C 50.608344 50.319375 50.5 50.492641 50.5 50.681641 L 50.5 52.181641 L 49.5 52.181641 L 49.5 50.681641 C 49.5 50.492641 49.393609 50.319375 49.224609 50.234375 L 47.5 49.373047 L 47.5 48.183594 z M 8.515625 54.210938 L 9.5 54.210938 L 9.5 56.181641 L 8.515625 56.181641 L 8.515625 54.210938 z M 10.5 54.210938 L 11.5 54.210938 L 11.5 56.181641 L 10.5 56.181641 L 10.5 54.210938 z M 12.5 54.210938 L 13.515625 54.210938 L 13.515625 56.181641 L 12.5 56.181641 L 12.5 54.210938 z M 86.507812 54.210938 L 87.494141 54.210938 L 87.494141 56.181641 L 86.507812 56.181641 L 86.507812 54.210938 z M 88.494141 54.210938 L 89.494141 54.210938 L 89.494141 56.181641 L 88.494141 56.181641 L 88.494141 54.210938 z M 90.492188 54.210938 L 91.507812 54.210938 L 91.507812 56.181641 L 90.492188 56.181641 L 90.492188 54.210938 z M 47.5 57.181641 C 48.052 57.181641 48.5 57.629641 48.5 58.181641 L 48.5 60.681641 L 48.5 62.681641 L 48.5 65.181641 L 46.5 65.181641 L 46.5 58.181641 C 46.5 57.629641 46.947999 57.181641 47.5 57.181641 z M 52.5 57.181641 C 53.052 57.181641 53.5 57.629641 53.5 58.181641 L 53.5 65.181641 L 51.5 65.181641 L 51.5 62.681641 L 51.5 60.681641 L 51.5 58.181641 C 51.5 57.629641 51.947999 57.181641 52.5 57.181641 z M 7.3671875 57.210938 L 14.65625 57.210938 L 17.322266 65.210938 L 16.21875 65.210938 L 14.224609 65.210938 L 11.371094 62.330078 C 11.277094 62.235078 11.149578 62.181641 11.017578 62.181641 L 11.015625 62.181641 C 10.882625 62.181641 10.755109 62.234121 10.662109 62.328125 L 7.7929688 65.210938 L 6.21875 65.210938 L 4.6953125 65.210938 L 7.3671875 57.210938 z M 85.359375 57.210938 L 92.648438 57.210938 L 95.314453 65.210938 L 94.001953 65.210938 L 92.216797 65.210938 L 89.363281 62.330078 C 89.269281 62.235078 89.141766 62.181641 89.009766 62.181641 L 89.007812 62.181641 C 88.874814 62.181641 88.747296 62.234121 88.654297 62.328125 L 85.787109 65.210938 L 84.148438 65.210938 C 84.101438 65.196938 84.052957 65.181641 84.001953 65.181641 L 82.699219 65.181641 L 85.359375 57.210938 z M 41.5 61.181641 L 45.5 61.181641 L 45.5 65.181641 L 45 65.181641 C 44.724 65.181641 44.5 65.405641 44.5 65.681641 L 44.5 67.681641 C 44.5 67.957641 44.724 68.181641 45 68.181641 L 55 68.181641 C 55.276 68.181641 55.5 67.957641 55.5 67.681641 L 55.5 65.681641 C 55.5 65.405641 55.276 65.181641 55 65.181641 L 54.5 65.181641 L 54.5 61.181641 L 58.5 61.181641 L 58.5 67.681641 L 58.5 72.681641 L 58.5 80.181641 L 54.5 80.181641 L 54.5 72.681641 C 54.5 71.302641 53.379 70.181641 52 70.181641 C 51.179 70.181641 50.456 70.585266 50 71.197266 C 49.544 70.585266 48.821 70.181641 48 70.181641 C 46.621 70.181641 45.5 71.302641 45.5 72.681641 L 45.5 80.181641 L 41.5 80.181641 L 41.5 72.681641 L 41.5 67.681641 L 41.5 61.181641 z M 49.5 61.181641 L 50.5 61.181641 L 50.5 62.181641 L 49.5 62.181641 L 49.5 61.181641 z M 49.5 63.181641 L 50.5 63.181641 L 50.5 65.181641 L 49.5 65.181641 L 49.5 63.181641 z M 11.013672 63.392578 L 13.660156 66.0625 C 13.754156 66.1575 13.882635 66.210938 14.015625 66.210938 L 16.21875 66.210938 L 17.5 66.210938 L 17.5 67.273438 C 17.343 67.217438 17.176 67.181641 17 67.181641 C 16.615 67.181641 16.266 67.332266 16 67.572266 C 15.734 67.332266 15.385 67.181641 15 67.181641 C 14.173 67.181641 13.5 67.854641 13.5 68.681641 L 13.5 69.681641 C 13.5 69.957641 13.724 70.181641 14 70.181641 C 14.276 70.181641 14.5 69.957641 14.5 69.681641 L 14.5 68.681641 C 14.5 68.406641 14.725 68.181641 15 68.181641 C 15.275 68.181641 15.5 68.406641 15.5 68.681641 L 15.5 69.681641 C 15.5 69.957641 15.724 70.181641 16 70.181641 C 16.276 70.181641 16.5 69.957641 16.5 69.681641 L 16.5 68.681641 C 16.5 68.406641 16.725 68.181641 17 68.181641 C 17.275 68.181641 17.5 68.406641 17.5 68.681641 L 17.5 69.681641 L 17.5 72.681641 L 17.5 95.181641 L 15.449219 95.181641 L 15.449219 91.671875 C 15.449219 89.190875 13.430219 87.171875 10.949219 87.171875 C 8.4682193 87.171875 6.4492188 89.190875 6.4492188 91.671875 L 6.4492188 95.181641 L 4.5 95.181641 L 4.5 69.681641 L 4.5 68.681641 C 4.5 68.406641 4.725 68.181641 5 68.181641 C 5.275 68.181641 5.5 68.406641 5.5 68.681641 L 5.5 69.681641 C 5.5 69.957641 5.724 70.181641 6 70.181641 C 6.276 70.181641 6.5 69.957641 6.5 69.681641 L 6.5 68.681641 C 6.5 68.406641 6.725 68.181641 7 68.181641 C 7.275 68.181641 7.5 68.406641 7.5 68.681641 L 7.5 69.681641 C 7.5 69.957641 7.724 70.181641 8 70.181641 C 8.276 70.181641 8.5 69.957641 8.5 69.681641 L 8.5 68.681641 C 8.5 67.854641 7.827 67.181641 7 67.181641 C 6.615 67.181641 6.266 67.332266 6 67.572266 C 5.734 67.332266 5.385 67.181641 5 67.181641 C 4.824 67.181641 4.657 67.217437 4.5 67.273438 L 4.5 66.210938 L 6.21875 66.210938 L 8 66.210938 C 8.133 66.210938 8.2624688 66.158448 8.3554688 66.064453 L 11.013672 63.392578 z M 89.005859 63.392578 L 91.652344 66.0625 C 91.746344 66.1575 91.874815 66.210938 92.007812 66.210938 L 94 66.210938 L 95.5 66.210938 L 95.5 67.273438 C 95.343 67.217438 95.176 67.181641 95 67.181641 C 94.615 67.181641 94.266 67.332266 94 67.572266 C 93.734 67.332266 93.385 67.181641 93 67.181641 C 92.173 67.181641 91.5 67.854641 91.5 68.681641 L 91.5 69.681641 C 91.5 69.957641 91.724 70.181641 92 70.181641 C 92.276 70.181641 92.5 69.957641 92.5 69.681641 L 92.5 68.681641 C 92.5 68.406641 92.725 68.181641 93 68.181641 C 93.275 68.181641 93.5 68.406641 93.5 68.681641 L 93.5 69.681641 C 93.5 69.957641 93.724 70.181641 94 70.181641 C 94.276 70.181641 94.5 69.957641 94.5 69.681641 L 94.5 68.681641 C 94.5 68.406641 94.725 68.181641 95 68.181641 C 95.275 68.181641 95.5 68.406641 95.5 68.681641 L 95.5 69.681641 L 95.5 95.181641 L 93.449219 95.181641 L 93.449219 91.671875 C 93.449219 89.190875 91.430219 87.171875 88.949219 87.171875 C 86.468219 87.171875 84.449219 89.190875 84.449219 91.671875 L 84.449219 95.181641 L 82.501953 95.181641 L 82.501953 72.681641 L 82.501953 69.681641 L 82.501953 68.681641 C 82.501953 68.406641 82.726953 68.181641 83.001953 68.181641 C 83.276953 68.181641 83.501953 68.406641 83.501953 68.681641 L 83.501953 69.681641 C 83.501953 69.957641 83.725953 70.181641 84.001953 70.181641 C 84.277953 70.181641 84.501953 69.957641 84.501953 69.681641 L 84.501953 68.681641 C 84.501953 68.406641 84.726953 68.181641 85.001953 68.181641 C 85.276953 68.181641 85.501953 68.406641 85.501953 68.681641 L 85.501953 69.681641 C 85.501953 69.957641 85.725953 70.181641 86.001953 70.181641 C 86.277953 70.181641 86.501953 69.957641 86.501953 69.681641 L 86.501953 68.681641 C 86.501953 67.854641 85.828953 67.181641 85.001953 67.181641 C 84.616953 67.181641 84.267953 67.332266 84.001953 67.572266 C 83.735953 67.332266 83.386953 67.181641 83.001953 67.181641 C 82.825953 67.181641 82.658953 67.217437 82.501953 67.273438 L 82.501953 66.210938 L 85.994141 66.210938 C 86.127141 66.210938 86.254656 66.158448 86.347656 66.064453 L 89.005859 63.392578 z M 11 65.181641 C 10.173 65.181641 9.5 65.854641 9.5 66.681641 L 9.5 69.681641 C 9.5 69.957641 9.724 70.181641 10 70.181641 L 12 70.181641 C 12.276 70.181641 12.5 69.957641 12.5 69.681641 L 12.5 66.681641 C 12.5 65.854641 11.827 65.181641 11 65.181641 z M 89 65.181641 C 88.173 65.181641 87.5 65.854641 87.5 66.681641 L 87.5 69.681641 C 87.5 69.957641 87.724 70.181641 88 70.181641 L 90 70.181641 C 90.276 70.181641 90.5 69.957641 90.5 69.681641 L 90.5 66.681641 C 90.5 65.854641 89.827 65.181641 89 65.181641 z M 11 66.181641 C 11.275 66.181641 11.5 66.406641 11.5 66.681641 L 11.5 69.181641 L 10.5 69.181641 L 10.5 66.681641 C 10.5 66.406641 10.725 66.181641 11 66.181641 z M 45.5 66.181641 L 46 66.181641 L 46.5 66.181641 L 46.5 67.181641 L 45.5 67.181641 L 45.5 66.181641 z M 47.5 66.181641 L 48.5 66.181641 L 48.5 67.181641 L 47.5 67.181641 L 47.5 66.181641 z M 49.5 66.181641 L 50.5 66.181641 L 50.5 67.181641 L 49.5 67.181641 L 49.5 66.181641 z M 51.5 66.181641 L 52.5 66.181641 L 52.5 67.181641 L 51.5 67.181641 L 51.5 66.181641 z M 53.5 66.181641 L 54 66.181641 L 54.5 66.181641 L 54.5 67.181641 L 53.5 67.181641 L 53.5 66.181641 z M 89 66.181641 C 89.275 66.181641 89.5 66.406641 89.5 66.681641 L 89.5 69.181641 L 88.5 69.181641 L 88.5 66.681641 C 88.5 66.406641 88.725 66.181641 89 66.181641 z M 18.5 68.181641 L 40.5 68.181641 L 40.5 72.181641 L 18.5 72.181641 L 18.5 69.681641 L 18.5 68.681641 L 18.5 68.181641 z M 59.5 68.181641 L 81.5 68.181641 L 81.5 68.681641 L 81.5 69.681641 L 81.5 72.181641 L 59.5 72.181641 L 59.5 68.181641 z M 48 71.181641 C 48.827 71.181641 49.5 71.854641 49.5 72.681641 L 49.5 80.181641 L 46.5 80.181641 L 46.5 72.681641 C 46.5 71.854641 47.173 71.181641 48 71.181641 z M 52 71.181641 C 52.827 71.181641 53.5 71.854641 53.5 72.681641 L 53.5 80.181641 L 50.5 80.181641 L 50.5 72.681641 C 50.5 71.854641 51.173 71.181641 52 71.181641 z M 11 73.171875 C 8.9470005 73.171875 7.2313594 74.560359 6.6933594 76.443359 C 6.6613594 76.500359 6.6417656 76.564813 6.6347656 76.632812 C 6.5547656 76.967812 6.5019531 77.311875 6.5019531 77.671875 L 6.5019531 84.671875 C 6.5009531 84.946875 6.724 85.171875 7 85.171875 L 15 85.171875 C 15.276 85.171875 15.5 84.947875 15.5 84.671875 L 15.5 77.671875 C 15.5 77.308875 15.446194 76.959094 15.365234 76.621094 C 15.357234 76.557094 15.340547 76.499313 15.310547 76.445312 C 14.773547 74.561312 13.054 73.171875 11 73.171875 z M 89.001953 73.171875 C 86.948953 73.171875 85.231359 74.560359 84.693359 76.443359 C 84.661359 76.500359 84.643719 76.564813 84.636719 76.632812 C 84.556719 76.967812 84.501953 77.311875 84.501953 77.671875 L 84.501953 84.671875 C 84.501953 84.947875 84.725953 85.171875 85.001953 85.171875 L 93.001953 85.171875 C 93.277953 85.171875 93.501953 84.947875 93.501953 84.671875 L 93.501953 77.671875 C 93.501953 77.308875 93.448182 76.961047 93.367188 76.623047 C 93.358187 76.558047 93.339547 76.499314 93.310547 76.445312 C 92.773547 74.561312 91.055953 73.171875 89.001953 73.171875 z M 18.5 73.181641 L 40.5 73.181641 L 40.5 81.181641 L 39.5 81.181641 L 39.5 76.931641 C 39.5 75.966641 38.715 75.181641 37.75 75.181641 C 37.26 75.181641 36.818 75.385936 36.5 75.710938 C 36.182 75.384938 35.74 75.181641 35.25 75.181641 C 34.285 75.181641 33.5 75.966641 33.5 76.931641 L 33.5 81.181641 L 32.5 81.181641 L 32.5 76.931641 C 32.5 75.966641 31.715 75.181641 30.75 75.181641 C 30.26 75.181641 29.818 75.385936 29.5 75.710938 C 29.182 75.384938 28.74 75.181641 28.25 75.181641 C 27.285 75.181641 26.5 75.966641 26.5 76.931641 L 26.5 81.181641 L 25.5 81.181641 L 25.5 76.931641 C 25.5 75.966641 24.715 75.181641 23.75 75.181641 C 23.26 75.181641 22.818 75.385936 22.5 75.710938 C 22.182 75.384938 21.74 75.181641 21.25 75.181641 C 20.285 75.181641 19.5 75.966641 19.5 76.931641 L 19.5 81.181641 L 18.5 81.181641 L 18.5 73.181641 z M 59.5 73.181641 L 81.5 73.181641 L 81.5 81.181641 L 80.5 81.181641 L 80.5 76.931641 C 80.5 75.966641 79.715 75.181641 78.75 75.181641 C 78.26 75.181641 77.818 75.385936 77.5 75.710938 C 77.182 75.384938 76.740001 75.181641 76.25 75.181641 C 75.285 75.181641 74.5 75.966641 74.5 76.931641 L 74.5 81.181641 L 73.5 81.181641 L 73.5 76.931641 C 73.5 75.966641 72.715 75.181641 71.75 75.181641 C 71.26 75.181641 70.818 75.385936 70.5 75.710938 C 70.182 75.384938 69.740001 75.181641 69.25 75.181641 C 68.285 75.181641 67.5 75.966641 67.5 76.931641 L 67.5 81.181641 L 66.5 81.181641 L 66.5 76.931641 C 66.5 75.966641 65.715 75.181641 64.75 75.181641 C 64.26 75.181641 63.818 75.385936 63.5 75.710938 C 63.182 75.384938 62.74 75.181641 62.25 75.181641 C 61.285 75.181641 60.5 75.966641 60.5 76.931641 L 60.5 81.181641 L 59.5 81.181641 L 59.5 73.181641 z M 11 74.171875 C 12.395 74.171875 13.59425 74.997641 14.15625 76.181641 L 7.8457031 76.181641 C 8.4077031 74.996641 9.6050005 74.171875 11 74.171875 z M 89 74.171875 C 90.395 74.171875 91.59425 74.997641 92.15625 76.181641 L 85.845703 76.181641 C 86.407703 74.996641 87.605 74.171875 89 74.171875 z M 21.25 76.181641 C 21.663 76.181641 22 76.518641 22 76.931641 L 22 81.181641 L 20.5 81.181641 L 20.5 76.931641 C 20.5 76.518641 20.837 76.181641 21.25 76.181641 z M 23.75 76.181641 C 24.163 76.181641 24.5 76.518641 24.5 76.931641 L 24.5 81.181641 L 23 81.181641 L 23 76.931641 C 23 76.518641 23.337 76.181641 23.75 76.181641 z M 28.25 76.181641 C 28.663 76.181641 29 76.518641 29 76.931641 L 29 81.181641 L 27.5 81.181641 L 27.5 76.931641 C 27.5 76.518641 27.837 76.181641 28.25 76.181641 z M 30.75 76.181641 C 31.163 76.181641 31.5 76.518641 31.5 76.931641 L 31.5 81.181641 L 30 81.181641 L 30 76.931641 C 30 76.518641 30.337 76.181641 30.75 76.181641 z M 35.25 76.181641 C 35.663 76.181641 36 76.518641 36 76.931641 L 36 81.181641 L 34.5 81.181641 L 34.5 76.931641 C 34.5 76.518641 34.837 76.181641 35.25 76.181641 z M 37.75 76.181641 C 38.163 76.181641 38.5 76.518641 38.5 76.931641 L 38.5 81.181641 L 37 81.181641 L 37 76.931641 C 37 76.518641 37.337 76.181641 37.75 76.181641 z M 62.25 76.181641 C 62.663 76.181641 63 76.518641 63 76.931641 L 63 81.181641 L 61.5 81.181641 L 61.5 76.931641 C 61.5 76.518641 61.837 76.181641 62.25 76.181641 z M 64.75 76.181641 C 65.163 76.181641 65.5 76.518641 65.5 76.931641 L 65.5 81.181641 L 64 81.181641 L 64 76.931641 C 64 76.518641 64.337 76.181641 64.75 76.181641 z M 69.25 76.181641 C 69.663 76.181641 70 76.518641 70 76.931641 L 70 81.181641 L 68.5 81.181641 L 68.5 76.931641 C 68.5 76.518641 68.837 76.181641 69.25 76.181641 z M 71.75 76.181641 C 72.163 76.181641 72.5 76.518641 72.5 76.931641 L 72.5 81.181641 L 71 81.181641 L 71 76.931641 C 71 76.518641 71.337 76.181641 71.75 76.181641 z M 76.25 76.181641 C 76.663 76.181641 77 76.518641 77 76.931641 L 77 81.181641 L 75.5 81.181641 L 75.5 76.931641 C 75.5 76.518641 75.837 76.181641 76.25 76.181641 z M 78.75 76.181641 C 79.163 76.181641 79.5 76.518641 79.5 76.931641 L 79.5 81.181641 L 78 81.181641 L 78 76.931641 C 78 76.518641 78.337 76.181641 78.75 76.181641 z M 7.5507812 77.181641 L 8.5 77.181641 L 8.5 78.181641 L 7.5 78.181641 L 7.5 77.671875 C 7.5 77.503875 7.5277812 77.342641 7.5507812 77.181641 z M 9.5 77.181641 L 10.5 77.181641 L 10.5 78.181641 L 9.5 78.181641 L 9.5 77.181641 z M 11.5 77.181641 L 12.5 77.181641 L 12.5 78.181641 L 11.5 78.181641 L 11.5 77.181641 z M 13.5 77.181641 L 14.451172 77.181641 C 14.475172 77.342641 14.5 77.503875 14.5 77.671875 L 14.5 78.181641 L 13.5 78.181641 L 13.5 77.181641 z M 85.550781 77.181641 L 86.5 77.181641 L 86.5 78.181641 L 85.5 78.181641 L 85.5 77.671875 C 85.5 77.503875 85.527781 77.342641 85.550781 77.181641 z M 87.5 77.181641 L 88.5 77.181641 L 88.5 78.181641 L 87.5 78.181641 L 87.5 77.181641 z M 89.5 77.181641 L 90.5 77.181641 L 90.5 78.181641 L 89.5 78.181641 L 89.5 77.181641 z M 91.5 77.181641 L 92.451172 77.181641 C 92.474172 77.342641 92.5 77.504875 92.5 77.671875 L 92.5 78.181641 L 91.5 78.181641 L 91.5 77.181641 z M 7.5 79.181641 L 8.5 79.181641 L 8.5 84.171875 L 7.5 84.171875 L 7.5 79.181641 z M 9.5 79.181641 L 10.5 79.181641 L 10.5 84.171875 L 9.5 84.171875 L 9.5 79.181641 z M 11.5 79.181641 L 12.5 79.181641 L 12.5 84.171875 L 11.5 84.171875 L 11.5 79.181641 z M 13.5 79.181641 L 14.5 79.181641 L 14.5 84.171875 L 13.5 84.171875 L 13.5 79.181641 z M 85.5 79.181641 L 86.5 79.181641 L 86.5 84.171875 L 85.5 84.171875 L 85.5 79.181641 z M 87.5 79.181641 L 88.5 79.181641 L 88.5 84.171875 L 87.5 84.171875 L 87.5 79.181641 z M 89.5 79.181641 L 90.5 79.181641 L 90.5 84.171875 L 89.5 84.171875 L 89.5 79.181641 z M 91.5 79.181641 L 92.5 79.181641 L 92.5 84.171875 L 91.5 84.171875 L 91.5 79.181641 z M 41.501953 81.181641 L 46 81.181641 L 50 81.181641 L 54 81.181641 L 58.5 81.181641 L 58.5 95.181641 L 55.449219 95.181641 L 55.449219 88.671875 C 55.449219 85.639875 52.981219 83.171875 49.949219 83.171875 C 46.917219 83.171875 44.449219 85.639875 44.449219 88.671875 L 44.449219 95.181641 L 41.501953 95.181641 L 41.501953 81.181641 z M 18.5 82.181641 L 20 82.181641 L 22.5 82.181641 L 25 82.181641 L 27 82.181641 L 29.5 82.181641 L 32 82.181641 L 34 82.181641 L 36.5 82.181641 L 39 82.181641 L 40.5 82.181641 L 40.5 95.181641 L 39.5 95.181641 L 39.5 91.175781 C 39.5 89.521781 38.154 88.175781 36.5 88.175781 C 34.846 88.175781 33.5 89.521781 33.5 91.175781 L 33.5 95.181641 L 32.5 95.181641 L 32.5 91.175781 C 32.5 89.521781 31.154 88.175781 29.5 88.175781 C 27.846 88.175781 26.5 89.521781 26.5 91.175781 L 26.5 95.181641 L 25.5 95.181641 L 25.5 91.175781 C 25.5 89.521781 24.154 88.175781 22.5 88.175781 C 20.846 88.175781 19.5 89.521781 19.5 91.175781 L 19.5 95.181641 L 18.5 95.181641 L 18.5 82.181641 z M 59.5 82.181641 L 61 82.181641 L 63.5 82.181641 L 66 82.181641 L 68 82.181641 L 70.5 82.181641 L 73 82.181641 L 75 82.181641 L 77.5 82.181641 L 80 82.181641 L 81.5 82.181641 L 81.5 95.181641 L 80.5 95.181641 L 80.5 91.175781 C 80.5 89.521781 79.154 88.175781 77.5 88.175781 C 75.846 88.175781 74.5 89.521781 74.5 91.175781 L 74.5 95.181641 L 73.5 95.181641 L 73.5 91.175781 C 73.5 89.521781 72.154 88.175781 70.5 88.175781 C 68.846 88.175781 67.5 89.521781 67.5 91.175781 L 67.5 95.181641 L 66.5 95.181641 L 66.5 91.175781 C 66.5 89.521781 65.154 88.175781 63.5 88.175781 C 61.846 88.175781 60.5 89.521781 60.5 91.175781 L 60.5 95.181641 L 59.5 95.181641 L 59.5 82.181641 z M 20 83.171875 C 19.724 83.171875 19.5 83.395875 19.5 83.671875 L 19.5 86.171875 C 19.5 86.447875 19.724 86.671875 20 86.671875 L 22.5 86.671875 L 25 86.671875 C 25.276 86.671875 25.5 86.447875 25.5 86.171875 L 25.5 83.671875 C 25.5 83.395875 25.276 83.171875 25 83.171875 L 22.5 83.171875 L 20 83.171875 z M 27 83.171875 C 26.724 83.171875 26.5 83.395875 26.5 83.671875 L 26.5 86.171875 C 26.5 86.447875 26.724 86.671875 27 86.671875 L 29.5 86.671875 L 32 86.671875 C 32.276 86.671875 32.5 86.447875 32.5 86.171875 L 32.5 83.671875 C 32.5 83.395875 32.276 83.171875 32 83.171875 L 29.5 83.171875 L 27 83.171875 z M 34 83.171875 C 33.724 83.171875 33.5 83.395875 33.5 83.671875 L 33.5 86.171875 C 33.5 86.447875 33.724 86.671875 34 86.671875 L 36.5 86.671875 L 39 86.671875 C 39.276 86.671875 39.5 86.447875 39.5 86.171875 L 39.5 83.671875 C 39.5 83.395875 39.276 83.171875 39 83.171875 L 36.5 83.171875 L 34 83.171875 z M 61 83.171875 C 60.724 83.171875 60.5 83.395875 60.5 83.671875 L 60.5 86.171875 C 60.5 86.447875 60.724 86.671875 61 86.671875 L 63.5 86.671875 L 66 86.671875 C 66.276001 86.671875 66.5 86.447875 66.5 86.171875 L 66.5 83.671875 C 66.5 83.395875 66.276001 83.171875 66 83.171875 L 63.5 83.171875 L 61 83.171875 z M 68 83.171875 C 67.724 83.171875 67.5 83.395875 67.5 83.671875 L 67.5 86.171875 C 67.5 86.447875 67.724 86.671875 68 86.671875 L 70.5 86.671875 L 73 86.671875 C 73.276001 86.671875 73.5 86.447875 73.5 86.171875 L 73.5 83.671875 C 73.5 83.395875 73.276001 83.171875 73 83.171875 L 70.5 83.171875 L 68 83.171875 z M 75 83.171875 C 74.724 83.171875 74.5 83.395875 74.5 83.671875 L 74.5 86.171875 C 74.5 86.447875 74.724 86.671875 75 86.671875 L 77.5 86.671875 L 80 86.671875 C 80.276001 86.671875 80.5 86.447875 80.5 86.171875 L 80.5 83.671875 C 80.5 83.395875 80.276001 83.171875 80 83.171875 L 77.5 83.171875 L 75 83.171875 z M 20.5 84.171875 L 22 84.171875 L 22 85.671875 L 20.5 85.671875 L 20.5 84.171875 z M 23 84.171875 L 24.5 84.171875 L 24.5 85.671875 L 23 85.671875 L 23 84.171875 z M 27.5 84.171875 L 29 84.171875 L 29 85.671875 L 27.5 85.671875 L 27.5 84.171875 z M 30 84.171875 L 31.5 84.171875 L 31.5 85.671875 L 30 85.671875 L 30 84.171875 z M 34.5 84.171875 L 36 84.171875 L 36 85.671875 L 34.5 85.671875 L 34.5 84.171875 z M 37 84.171875 L 38.5 84.171875 L 38.5 85.671875 L 37 85.671875 L 37 84.171875 z M 49.949219 84.171875 C 52.430219 84.171875 54.449219 86.190875 54.449219 88.671875 L 54.449219 95.171875 L 45.449219 95.171875 L 45.449219 88.671875 C 45.449219 86.190875 47.468219 84.171875 49.949219 84.171875 z M 61.5 84.171875 L 63 84.171875 L 63 85.671875 L 61.5 85.671875 L 61.5 84.171875 z M 64 84.171875 L 65.5 84.171875 L 65.5 85.671875 L 64 85.671875 L 64 84.171875 z M 68.5 84.171875 L 70 84.171875 L 70 85.671875 L 68.5 85.671875 L 68.5 84.171875 z M 71 84.171875 L 72.5 84.171875 L 72.5 85.671875 L 71 85.671875 L 71 84.171875 z M 75.5 84.171875 L 77 84.171875 L 77 85.671875 L 75.5 85.671875 L 75.5 84.171875 z M 78 84.171875 L 79.5 84.171875 L 79.5 85.671875 L 78 85.671875 L 78 84.171875 z M 10.949219 88.171875 C 12.879219 88.171875 14.449219 89.741875 14.449219 91.671875 L 14.449219 95.171875 L 7.4492188 95.171875 L 7.4492188 91.671875 C 7.4492188 89.741875 9.0192192 88.171875 10.949219 88.171875 z M 88.949219 88.171875 C 90.879219 88.171875 92.449219 89.741875 92.449219 91.671875 L 92.449219 95.171875 L 85.449219 95.171875 L 85.449219 91.671875 C 85.449219 89.741875 87.019219 88.171875 88.949219 88.171875 z M 22.5 89.175781 C 23.603 89.175781 24.5 90.072781 24.5 91.175781 L 24.5 95.181641 L 20.5 95.181641 L 20.5 91.175781 C 20.5 90.072781 21.397 89.175781 22.5 89.175781 z M 29.5 89.175781 C 30.603 89.175781 31.5 90.072781 31.5 91.175781 L 31.5 95.181641 L 27.5 95.181641 L 27.5 91.175781 C 27.5 90.072781 28.397 89.175781 29.5 89.175781 z M 36.5 89.175781 C 37.603 89.175781 38.5 90.072781 38.5 91.175781 L 38.5 95.181641 L 34.5 95.181641 L 34.5 91.175781 C 34.5 90.072781 35.397 89.175781 36.5 89.175781 z M 63.5 89.175781 C 64.603 89.175781 65.5 90.072781 65.5 91.175781 L 65.5 95.181641 L 61.5 95.181641 L 61.5 91.175781 C 61.5 90.072781 62.397 89.175781 63.5 89.175781 z M 70.5 89.175781 C 71.603 89.175781 72.5 90.072781 72.5 91.175781 L 72.5 95.181641 L 68.5 95.181641 L 68.5 91.175781 C 68.5 90.072781 69.397 89.175781 70.5 89.175781 z M 77.5 89.175781 C 78.603 89.175781 79.5 90.072781 79.5 91.175781 L 79.5 95.181641 L 75.5 95.181641 L 75.5 91.175781 C 75.5 90.072781 76.397 89.175781 77.5 89.175781 z "/></svg>